# xmcd
#
# Track frame offsets:
#	150
#	10922
#	26724
#	49734
#	76329
#	96892
#	114698
#	124465
#	133003
#	154526
#	180693
#	194650
#	206754
#
# Disc length: 3053 seconds
#
# Revision: 1
# Processed by: cddbd v1.5.1PL0 Copyright (c) Steve Scherf et al.
# Submitted via: EasyCDDAExtractor 5.1.0
#
DISCID=b70beb0d
DTITLE=Various Artist - UIC Pavillion Chicago 10-12-85 Disc 1
DYEAR=1985
DGENRE=Hard Rock
TTITLE0=Intro
TTITLE1=King of Rock N Roll 
TTITLE2=Like the Beat of a Heart 
TTITLE3=Don't Talk to Strangers 
TTITLE4=Hungry For Heaven 
TTITLE5=The Last in Line 
TTITLE6=Holy Diver 
TTITLE7=The Last in Line 
TTITLE8=Drum Solo/Vinny Appice 
TTITLE9=Heaven and Hell 
TTITLE10=Guitar Solo/Vivian Campbell 
TTITLE11=Dio - Keyboard Solo/Claude Schnell 
TTITLE12=Guitar Solo
EXTD=
EXTT0=
EXTT1=
EXTT2=
EXTT3=
EXTT4=
EXTT5=
EXTT6=
EXTT7=
EXTT8=
EXTT9=
EXTT10=
EXTT11=
EXTT12=
PLAYORDER=
